<svg xmlns="http://www.w3.org/2000/svg" viewBox="0 -0.5 9 15" shape-rendering="crispEdges">
<metadata>Made with Pixels to Svg https://codepen.io/shshaw/pen/XbxvNj</metadata>
<path stroke="#3f48cc" d="M5 0h1M4 1h2M3 2h3M2 4h5M0 8h2M6 8h3M0 9h3M6 9h3M2 10h1M5 10h2M2 11h5M3 12h4M3 13h4M4 14h4" />
<path stroke="#525bd1" d="M6 0h1M7 4h1" />
<path stroke="#333ec1" d="M3 3h1M5 3h1M1 4h1M1 10h1M2 12h1M3 14h1" />
<path stroke="#fff200" d="M4 3h1" />
<path stroke="#c3c3c3" d="M2 5h1M6 5h1M2 6h1M6 6h1M2 7h2M5 7h2M3 8h3M4 9h2" />
<path stroke="#000000" d="M3 5h1M5 5h1" />
<path stroke="#fae2ca" d="M4 5h1M3 6h3M4 7h1" />
<path stroke="#bcbcbc" d="M2 8h1M3 9h1M3 10h2" />
</svg>